<mxfile host="app.diagrams.net" modified="2023-08-14T14:06:44.291Z" agent="Mozilla/5.0 (Windows NT 10.0; Win64; x64) AppleWebKit/537.36 (KHTML, like Gecko) Chrome/115.0.0.0 Safari/537.36 Edg/115.0.1901.203" etag="Jq9cR5huCsJOtoaHtKNL" version="21.6.8" type="github">
  <diagram name="Page-1" id="xX8ug6q_lY_EhBv0NwwL">
    <mxGraphModel dx="1050" dy="1727" grid="1" gridSize="10" guides="1" tooltips="1" connect="1" arrows="1" fold="1" page="1" pageScale="1" pageWidth="850" pageHeight="1100" math="0" shadow="0">
      <root>
        <mxCell id="0" />
        <mxCell id="1" parent="0" />
        <object label="" Request_Pending_Transaction="" id="DMAzdghA2btpXMdXgp0k-1">
          <mxCell style="html=1;points=[];perimeter=orthogonalPerimeter;outlineConnect=0;targetShapes=umlLifeline;portConstraint=eastwest;newEdgeStyle={&quot;edgeStyle&quot;:&quot;elbowEdgeStyle&quot;,&quot;elbow&quot;:&quot;vertical&quot;,&quot;curved&quot;:0,&quot;rounded&quot;:0};" parent="1" vertex="1">
            <mxGeometry x="250" y="60" width="10" height="330" as="geometry" />
          </mxCell>
        </object>
        <mxCell id="DMAzdghA2btpXMdXgp0k-2" value="" style="html=1;points=[];perimeter=orthogonalPerimeter;outlineConnect=0;targetShapes=umlLifeline;portConstraint=eastwest;newEdgeStyle={&quot;edgeStyle&quot;:&quot;elbowEdgeStyle&quot;,&quot;elbow&quot;:&quot;vertical&quot;,&quot;curved&quot;:0,&quot;rounded&quot;:0};" parent="1" vertex="1">
          <mxGeometry x="400" y="90" width="10" height="280" as="geometry" />
        </mxCell>
        <mxCell id="DMAzdghA2btpXMdXgp0k-3" value="requestPendingTransaction" style="html=1;verticalAlign=bottom;endArrow=block;edgeStyle=elbowEdgeStyle;elbow=horizontal;curved=0;rounded=0;" parent="1" source="DMAzdghA2btpXMdXgp0k-1" target="DMAzdghA2btpXMdXgp0k-2" edge="1">
          <mxGeometry relative="1" as="geometry">
            <mxPoint x="330" y="90" as="sourcePoint" />
            <Array as="points">
              <mxPoint x="330" y="100" />
            </Array>
          </mxGeometry>
        </mxCell>
        <mxCell id="DMAzdghA2btpXMdXgp0k-4" value="returnPendingTranxResult" style="html=1;verticalAlign=bottom;endArrow=open;dashed=1;endSize=8;edgeStyle=elbowEdgeStyle;elbow=vertical;curved=0;rounded=0;" parent="1" source="DMAzdghA2btpXMdXgp0k-2" edge="1">
          <mxGeometry relative="1" as="geometry">
            <mxPoint x="260" y="360" as="targetPoint" />
            <Array as="points">
              <mxPoint x="280" y="360" />
            </Array>
          </mxGeometry>
        </mxCell>
        <mxCell id="DMAzdghA2btpXMdXgp0k-5" value="" style="html=1;points=[];perimeter=orthogonalPerimeter;outlineConnect=0;targetShapes=umlLifeline;portConstraint=eastwest;newEdgeStyle={&quot;edgeStyle&quot;:&quot;elbowEdgeStyle&quot;,&quot;elbow&quot;:&quot;vertical&quot;,&quot;curved&quot;:0,&quot;rounded&quot;:0};" parent="1" vertex="1">
          <mxGeometry x="530" y="100" width="10" height="70" as="geometry" />
        </mxCell>
        <mxCell id="DMAzdghA2btpXMdXgp0k-6" value="requestCASA" style="html=1;verticalAlign=bottom;endArrow=block;edgeStyle=elbowEdgeStyle;elbow=vertical;curved=0;rounded=0;" parent="1" edge="1">
          <mxGeometry relative="1" as="geometry">
            <mxPoint x="410" y="110" as="sourcePoint" />
            <mxPoint x="530" y="110" as="targetPoint" />
          </mxGeometry>
        </mxCell>
        <mxCell id="DMAzdghA2btpXMdXgp0k-7" value="returnList" style="html=1;verticalAlign=bottom;endArrow=open;dashed=1;endSize=8;edgeStyle=elbowEdgeStyle;elbow=vertical;curved=0;rounded=0;" parent="1" edge="1">
          <mxGeometry relative="1" as="geometry">
            <mxPoint x="410" y="150.35" as="targetPoint" />
            <mxPoint x="530" y="150" as="sourcePoint" />
          </mxGeometry>
        </mxCell>
        <mxCell id="DMAzdghA2btpXMdXgp0k-10" value="" style="html=1;points=[];perimeter=orthogonalPerimeter;outlineConnect=0;targetShapes=umlLifeline;portConstraint=eastwest;newEdgeStyle={&quot;edgeStyle&quot;:&quot;elbowEdgeStyle&quot;,&quot;elbow&quot;:&quot;vertical&quot;,&quot;curved&quot;:0,&quot;rounded&quot;:0};" parent="1" vertex="1">
          <mxGeometry x="530" y="200" width="10" height="60" as="geometry" />
        </mxCell>
        <mxCell id="DMAzdghA2btpXMdXgp0k-11" value="requestCAMS" style="html=1;verticalAlign=bottom;endArrow=block;edgeStyle=elbowEdgeStyle;elbow=vertical;curved=0;rounded=0;exitX=1;exitY=0.393;exitDx=0;exitDy=0;exitPerimeter=0;" parent="1" edge="1">
          <mxGeometry relative="1" as="geometry">
            <mxPoint x="410" y="210.03999999999996" as="sourcePoint" />
            <mxPoint x="530" y="210" as="targetPoint" />
          </mxGeometry>
        </mxCell>
        <mxCell id="DMAzdghA2btpXMdXgp0k-12" value="returnList" style="html=1;verticalAlign=bottom;endArrow=open;dashed=1;endSize=8;edgeStyle=elbowEdgeStyle;elbow=vertical;curved=0;rounded=0;" parent="1" edge="1">
          <mxGeometry relative="1" as="geometry">
            <mxPoint x="410" y="250" as="targetPoint" />
            <mxPoint x="530" y="250" as="sourcePoint" />
          </mxGeometry>
        </mxCell>
        <mxCell id="DMAzdghA2btpXMdXgp0k-13" value="" style="html=1;points=[];perimeter=orthogonalPerimeter;outlineConnect=0;targetShapes=umlLifeline;portConstraint=eastwest;newEdgeStyle={&quot;edgeStyle&quot;:&quot;elbowEdgeStyle&quot;,&quot;elbow&quot;:&quot;vertical&quot;,&quot;curved&quot;:0,&quot;rounded&quot;:0};" parent="1" vertex="1">
          <mxGeometry x="530" y="300" width="10" height="50" as="geometry" />
        </mxCell>
        <mxCell id="DMAzdghA2btpXMdXgp0k-14" value="requestPayments" style="html=1;verticalAlign=bottom;endArrow=block;edgeStyle=elbowEdgeStyle;elbow=vertical;curved=0;rounded=0;" parent="1" edge="1">
          <mxGeometry relative="1" as="geometry">
            <mxPoint x="410" y="310" as="sourcePoint" />
            <mxPoint x="530" y="310" as="targetPoint" />
          </mxGeometry>
        </mxCell>
        <mxCell id="DMAzdghA2btpXMdXgp0k-15" value="returnList" style="html=1;verticalAlign=bottom;endArrow=open;dashed=1;endSize=8;edgeStyle=elbowEdgeStyle;elbow=vertical;curved=0;rounded=0;" parent="1" edge="1">
          <mxGeometry relative="1" as="geometry">
            <mxPoint x="410" y="340.3" as="targetPoint" />
            <mxPoint x="530" y="340.3" as="sourcePoint" />
          </mxGeometry>
        </mxCell>
        <mxCell id="DMAzdghA2btpXMdXgp0k-16" value="Money APP" style="rounded=0;whiteSpace=wrap;html=1;" parent="1" vertex="1">
          <mxGeometry x="225" y="-10" width="60" height="30" as="geometry" />
        </mxCell>
        <mxCell id="DMAzdghA2btpXMdXgp0k-18" value="API Service" style="rounded=0;whiteSpace=wrap;html=1;" parent="1" vertex="1">
          <mxGeometry x="375" y="-10" width="60" height="30" as="geometry" />
        </mxCell>
        <mxCell id="DMAzdghA2btpXMdXgp0k-21" value="CASA Repository" style="image;html=1;image=img/lib/clip_art/computers/Database_128x128.png" parent="1" vertex="1">
          <mxGeometry x="580" y="110" width="80" height="45" as="geometry" />
        </mxCell>
        <mxCell id="DMAzdghA2btpXMdXgp0k-22" value="CAMS Repository" style="image;html=1;image=img/lib/clip_art/computers/Database_128x128.png" parent="1" vertex="1">
          <mxGeometry x="580" y="200" width="80" height="40" as="geometry" />
        </mxCell>
        <mxCell id="DMAzdghA2btpXMdXgp0k-23" value="Payments Repository" style="image;html=1;image=img/lib/clip_art/computers/Database_128x128.png" parent="1" vertex="1">
          <mxGeometry x="580" y="280" width="80" height="40" as="geometry" />
        </mxCell>
        <mxCell id="DMAzdghA2btpXMdXgp0k-24" value="CASA Service" style="text;html=1;strokeColor=none;fillColor=none;align=center;verticalAlign=middle;whiteSpace=wrap;rounded=0;" parent="1" vertex="1">
          <mxGeometry x="505" y="70" width="60" height="30" as="geometry" />
        </mxCell>
        <mxCell id="DMAzdghA2btpXMdXgp0k-25" value="CAMS&lt;br&gt;Service" style="text;html=1;strokeColor=none;fillColor=none;align=center;verticalAlign=middle;whiteSpace=wrap;rounded=0;" parent="1" vertex="1">
          <mxGeometry x="505" y="170" width="60" height="30" as="geometry" />
        </mxCell>
        <mxCell id="DMAzdghA2btpXMdXgp0k-26" value="Payments Serice" style="text;html=1;strokeColor=none;fillColor=none;align=center;verticalAlign=middle;whiteSpace=wrap;rounded=0;" parent="1" vertex="1">
          <mxGeometry x="505" y="270" width="60" height="30" as="geometry" />
        </mxCell>
        <mxCell id="DMAzdghA2btpXMdXgp0k-30" value="" style="endArrow=none;dashed=1;html=1;dashPattern=1 3;strokeWidth=2;rounded=0;entryX=0.5;entryY=1;entryDx=0;entryDy=0;" parent="1" source="DMAzdghA2btpXMdXgp0k-1" target="DMAzdghA2btpXMdXgp0k-16" edge="1">
          <mxGeometry width="50" height="50" relative="1" as="geometry">
            <mxPoint x="250" y="60" as="sourcePoint" />
            <mxPoint x="300" y="10" as="targetPoint" />
          </mxGeometry>
        </mxCell>
        <mxCell id="DMAzdghA2btpXMdXgp0k-31" value="" style="endArrow=none;dashed=1;html=1;dashPattern=1 3;strokeWidth=2;rounded=0;" parent="1" source="DMAzdghA2btpXMdXgp0k-2" target="DMAzdghA2btpXMdXgp0k-18" edge="1">
          <mxGeometry width="50" height="50" relative="1" as="geometry">
            <mxPoint x="404.63" y="60" as="sourcePoint" />
            <mxPoint x="404.63" y="20" as="targetPoint" />
          </mxGeometry>
        </mxCell>
        <object label="" Request_Pending_Transaction="" id="fob45yyhaISWXM2jvVBm-1">
          <mxCell style="html=1;points=[];perimeter=orthogonalPerimeter;outlineConnect=0;targetShapes=umlLifeline;portConstraint=eastwest;newEdgeStyle={&quot;edgeStyle&quot;:&quot;elbowEdgeStyle&quot;,&quot;elbow&quot;:&quot;vertical&quot;,&quot;curved&quot;:0,&quot;rounded&quot;:0};" vertex="1" parent="1">
            <mxGeometry x="235" y="690" width="10" height="330" as="geometry" />
          </mxCell>
        </object>
        <mxCell id="fob45yyhaISWXM2jvVBm-2" value="" style="html=1;points=[];perimeter=orthogonalPerimeter;outlineConnect=0;targetShapes=umlLifeline;portConstraint=eastwest;newEdgeStyle={&quot;edgeStyle&quot;:&quot;elbowEdgeStyle&quot;,&quot;elbow&quot;:&quot;vertical&quot;,&quot;curved&quot;:0,&quot;rounded&quot;:0};" vertex="1" parent="1">
          <mxGeometry x="385" y="720" width="10" height="280" as="geometry" />
        </mxCell>
        <mxCell id="fob45yyhaISWXM2jvVBm-3" value="requestPendingTransaction" style="html=1;verticalAlign=bottom;endArrow=block;edgeStyle=elbowEdgeStyle;elbow=horizontal;curved=0;rounded=0;" edge="1" parent="1" source="fob45yyhaISWXM2jvVBm-1" target="fob45yyhaISWXM2jvVBm-2">
          <mxGeometry relative="1" as="geometry">
            <mxPoint x="315" y="720" as="sourcePoint" />
            <Array as="points">
              <mxPoint x="315" y="730" />
            </Array>
          </mxGeometry>
        </mxCell>
        <mxCell id="fob45yyhaISWXM2jvVBm-4" value="returnPendingTranxResult" style="html=1;verticalAlign=bottom;endArrow=open;dashed=1;endSize=8;edgeStyle=elbowEdgeStyle;elbow=vertical;curved=0;rounded=0;" edge="1" parent="1" source="fob45yyhaISWXM2jvVBm-2">
          <mxGeometry relative="1" as="geometry">
            <mxPoint x="245" y="990" as="targetPoint" />
            <Array as="points">
              <mxPoint x="265" y="990" />
            </Array>
          </mxGeometry>
        </mxCell>
        <mxCell id="fob45yyhaISWXM2jvVBm-8" value="" style="html=1;points=[];perimeter=orthogonalPerimeter;outlineConnect=0;targetShapes=umlLifeline;portConstraint=eastwest;newEdgeStyle={&quot;edgeStyle&quot;:&quot;elbowEdgeStyle&quot;,&quot;elbow&quot;:&quot;vertical&quot;,&quot;curved&quot;:0,&quot;rounded&quot;:0};" vertex="1" parent="1">
          <mxGeometry x="515" y="830" width="10" height="60" as="geometry" />
        </mxCell>
        <mxCell id="fob45yyhaISWXM2jvVBm-9" value="request GDP" style="html=1;verticalAlign=bottom;endArrow=block;edgeStyle=elbowEdgeStyle;elbow=vertical;curved=0;rounded=0;exitX=1;exitY=0.393;exitDx=0;exitDy=0;exitPerimeter=0;" edge="1" parent="1">
          <mxGeometry relative="1" as="geometry">
            <mxPoint x="395" y="840.04" as="sourcePoint" />
            <mxPoint x="515" y="840" as="targetPoint" />
          </mxGeometry>
        </mxCell>
        <mxCell id="fob45yyhaISWXM2jvVBm-10" value="returnList" style="html=1;verticalAlign=bottom;endArrow=open;dashed=1;endSize=8;edgeStyle=elbowEdgeStyle;elbow=vertical;curved=0;rounded=0;" edge="1" parent="1">
          <mxGeometry relative="1" as="geometry">
            <mxPoint x="395" y="880" as="targetPoint" />
            <mxPoint x="515" y="880" as="sourcePoint" />
          </mxGeometry>
        </mxCell>
        <mxCell id="fob45yyhaISWXM2jvVBm-14" value="Money APP" style="rounded=0;whiteSpace=wrap;html=1;" vertex="1" parent="1">
          <mxGeometry x="210" y="620" width="60" height="30" as="geometry" />
        </mxCell>
        <mxCell id="fob45yyhaISWXM2jvVBm-15" value="API Service" style="rounded=0;whiteSpace=wrap;html=1;" vertex="1" parent="1">
          <mxGeometry x="360" y="620" width="60" height="30" as="geometry" />
        </mxCell>
        <mxCell id="fob45yyhaISWXM2jvVBm-17" value="GDP Core &lt;br&gt;banking service" style="image;html=1;image=img/lib/clip_art/computers/Database_128x128.png" vertex="1" parent="1">
          <mxGeometry x="565" y="830" width="80" height="40" as="geometry" />
        </mxCell>
        <mxCell id="fob45yyhaISWXM2jvVBm-20" value="GDP service layer&lt;br&gt;" style="text;html=1;strokeColor=none;fillColor=none;align=center;verticalAlign=middle;whiteSpace=wrap;rounded=0;" vertex="1" parent="1">
          <mxGeometry x="490" y="780" width="60" height="30" as="geometry" />
        </mxCell>
        <mxCell id="fob45yyhaISWXM2jvVBm-22" value="" style="endArrow=none;dashed=1;html=1;dashPattern=1 3;strokeWidth=2;rounded=0;entryX=0.5;entryY=1;entryDx=0;entryDy=0;" edge="1" parent="1" source="fob45yyhaISWXM2jvVBm-1" target="fob45yyhaISWXM2jvVBm-14">
          <mxGeometry width="50" height="50" relative="1" as="geometry">
            <mxPoint x="235" y="690" as="sourcePoint" />
            <mxPoint x="285" y="640" as="targetPoint" />
          </mxGeometry>
        </mxCell>
        <mxCell id="fob45yyhaISWXM2jvVBm-23" value="" style="endArrow=none;dashed=1;html=1;dashPattern=1 3;strokeWidth=2;rounded=0;" edge="1" parent="1" source="fob45yyhaISWXM2jvVBm-2" target="fob45yyhaISWXM2jvVBm-15">
          <mxGeometry width="50" height="50" relative="1" as="geometry">
            <mxPoint x="389.63" y="690" as="sourcePoint" />
            <mxPoint x="389.63" y="650" as="targetPoint" />
          </mxGeometry>
        </mxCell>
      </root>
    </mxGraphModel>
  </diagram>
</mxfile>
